<?xml version="1.0" standalone="no"?>
<!DOCTYPE svg PUBLIC "-//W3C//DTD SVG 20010904//EN"
 "http://www.w3.org/TR/2001/REC-SVG-20010904/DTD/svg10.dtd">
<svg version="1.0" xmlns="http://www.w3.org/2000/svg"
 width="2001.000000pt" height="2688.000000pt" viewBox="0 0 2001.000000 2688.000000"
 preserveAspectRatio="xMidYMid meet">

<g transform="translate(0.000000,2688.000000) scale(0.100000,-0.100000)"
fill="#000000" stroke="none">
<path d="M9820 26702 c-1961 -1850 -4382 -2970 -7020 -3247 -571 -59 -1375
-74 -1950 -36 -165 11 -614 55 -723 70 -31 4 -59 5 -62 3 -9 -10 -5 -2830 5
-3322 30 -1495 97 -2694 216 -3860 434 -4282 1530 -7408 3311 -9448 255 -293
631 -660 928 -907 373 -310 1028 -754 1095 -741 14 3 88 11 165 17 86 8 134
16 125 21 -8 4 -100 57 -205 116 -1666 949 -2930 2523 -3840 4782 -912 2264
-1424 5126 -1570 8780 -33 835 -37 1102 -42 2698 l-5 1652 23 0 c13 0 91 -7
172 -15 619 -62 1447 -72 2067 -24 2291 176 4436 980 6290 2357 371 275 711
560 1076 899 67 62 125 113 129 113 4 0 51 -42 104 -92 673 -646 1577 -1308
2450 -1795 1324 -738 2815 -1229 4301 -1417 500 -63 833 -86 1366 -93 540 -7
870 7 1462 63 l72 7 0 -1259 c0 -1787 -22 -2761 -85 -3884 -216 -3802 -853
-6708 -1965 -8955 -877 -1772 -2006 -3028 -3457 -3845 -97 -55 -168 -100 -158
-100 11 0 87 -7 170 -15 l149 -15 121 72 c722 431 1400 1015 1990 1713 1216
1439 2120 3465 2679 6005 428 1946 646 3990 727 6800 13 487 23 2704 14 3252
l-7 448 -22 -5 c-37 -9 -364 -44 -556 -59 -617 -51 -1330 -51 -1935 0 -1673
139 -3297 635 -4776 1458 -902 502 -1771 1143 -2509 1853 l-135 130 -185 -175z"/>
<path d="M9895 26277 c-2006 -1824 -4475 -2927 -7125 -3182 -488 -47 -1123
-65 -1590 -46 -270 11 -604 34 -699 47 l-43 7 5 -1554 c5 -1450 10 -1770 37
-2494 104 -2763 411 -5048 939 -6975 757 -2764 1972 -4783 3627 -6026 360
-271 811 -545 1189 -723 l109 -52 246 21 c276 22 822 62 1190 85 134 9 246 17
247 19 2 1 -34 11 -79 20 -122 26 -502 137 -673 196 -1471 509 -2641 1442
-3586 2860 -1474 2212 -2307 5527 -2524 10040 -43 902 -55 1445 -62 2721 l-6
1146 344 -5 c1713 -23 3381 290 4992 939 1190 480 2377 1185 3366 2001 95 79
181 148 190 155 13 10 38 -7 161 -108 1948 -1616 4331 -2633 6810 -2908 527
-59 838 -75 1432 -76 l518 0 0 -640 c-1 -2344 -82 -4106 -266 -5735 -408
-3635 -1334 -6348 -2779 -8150 -352 -440 -740 -830 -1137 -1148 -743 -592
-1590 -1010 -2548 -1257 l-205 -52 75 -7 c41 -3 217 -15 390 -27 281 -18 971
-69 1155 -85 l71 -6 183 92 c1208 604 2184 1489 3010 2730 1495 2244 2354
5483 2616 9860 31 519 55 1086 76 1810 13 437 23 3301 12 3317 -6 8 -46 8
-163 -2 -364 -32 -572 -40 -1025 -39 -563 0 -898 19 -1415 80 -2521 296 -4893
1382 -6810 3119 l-146 132 -109 -100z"/>
<path d="M7541 23068 c-35 -72 -71 -129 -106 -166 l-53 -57 34 -40 c39 -46
104 -175 130 -257 10 -32 21 -58 24 -58 4 0 20 30 35 66 35 81 113 203 149
231 14 12 26 24 26 28 0 4 -15 25 -34 48 -42 52 -81 129 -116 230 -15 43 -29
79 -31 81 -2 2 -28 -46 -58 -106z"/>
<path d="M12432 23055 c-28 -55 -70 -120 -92 -143 l-41 -43 29 -37 c41 -52 83
-137 125 -255 5 -14 20 7 58 82 28 56 68 121 90 144 25 26 38 46 32 53 -4 6
-22 30 -40 54 -18 23 -46 79 -63 124 -17 44 -34 90 -39 101 -6 16 -17 2 -59
-80z"/>
<path d="M5241 21577 c-62 -133 -142 -257 -204 -317 -26 -25 -47 -48 -47 -52
0 -4 23 -38 52 -75 57 -75 131 -224 174 -348 15 -44 30 -84 34 -88 4 -5 24 31
44 79 54 128 142 270 208 335 l58 56 -21 19 c-66 59 -143 202 -205 379 l-42
120 -51 -108z"/>
<path d="M14832 21491 c-64 -132 -161 -277 -207 -307 -14 -9 -25 -20 -25 -25
0 -4 23 -38 50 -75 57 -74 134 -228 176 -349 15 -44 30 -84 34 -88 4 -4 23 32
43 80 53 127 133 258 200 324 31 31 57 60 57 64 0 4 -20 30 -45 58 -56 64
-132 213 -175 346 -18 56 -36 101 -39 101 -3 0 -34 -58 -69 -129z"/>
<path d="M9298 21495 l-53 -105 -57 0 -58 0 0 -370 0 -370 875 0 875 0 0 370
0 370 -59 0 -58 0 -49 105 -48 105 -658 0 -658 0 -52 -105z m1240 -407 l2
-188 -535 0 -535 0 0 190 0 190 533 -2 532 -3 3 -187z"/>
<path d="M10970 20455 c0 -227 34 -490 126 -995 121 -661 139 -813 138 -1195
0 -242 -4 -318 -22 -455 -51 -381 -141 -750 -287 -1181 -92 -271 -171 -538
-163 -544 2 -1 149 8 327 19 l323 21 8 -20 c4 -11 74 -294 156 -629 116 -473
151 -602 156 -580 4 16 37 270 73 564 36 294 68 546 73 559 6 23 16 26 109 41
l101 16 389 -618 c213 -340 389 -614 391 -610 1 4 -43 286 -97 627 -55 341
-99 621 -98 622 1 1 65 9 141 17 76 8 141 17 143 20 8 7 -30 120 -134 401
-204 549 -263 776 -263 1014 0 133 17 213 59 281 31 51 39 52 118 14 46 -22
64 -41 143 -149 99 -135 224 -274 235 -263 15 15 -17 196 -55 311 -68 202
-185 428 -355 687 -148 225 -242 315 -540 523 -323 225 -536 456 -759 825 -72
119 -182 329 -237 452 -34 77 -154 274 -190 315 -5 5 -9 -34 -9 -90z"/>
<path d="M9092 20469 c-62 -199 -201 -486 -306 -632 -80 -113 -402 -438 -498
-505 -40 -27 -190 -114 -333 -192 -503 -274 -728 -453 -900 -715 -96 -147
-153 -277 -199 -463 -30 -119 -58 -315 -54 -379 l3 -48 60 61 c39 39 89 110
145 203 107 181 159 245 240 299 l64 44 9 -29 c5 -15 7 -95 6 -178 -8 -356 -5
-403 24 -501 25 -84 27 -96 17 -165 -6 -41 -78 -348 -160 -684 -83 -335 -154
-626 -159 -647 l-8 -36 73 -54 c61 -44 73 -58 74 -81 0 -24 -83 -736 -94 -804
-12 -76 91 115 248 459 74 164 151 322 170 352 43 67 97 100 190 117 42 8 78
21 92 34 14 12 43 82 79 185 31 91 60 169 64 173 13 13 57 -89 107 -247 46
-146 47 -148 83 -163 20 -7 50 -21 67 -30 37 -19 31 10 75 -368 33 -291 53
-436 75 -541 19 -93 46 -182 51 -168 2 6 43 228 92 494 102 560 86 520 231
567 74 25 85 31 88 53 1 14 -38 328 -88 698 -49 370 -90 683 -90 695 0 21 7
24 73 35 39 7 78 16 86 21 11 7 10 47 -5 252 -14 182 -19 344 -19 639 1 527
11 597 175 1155 95 322 144 522 165 669 20 135 29 374 18 445 l-8 54 -23 -74z"/>
<path d="M7504 20465 c-226 -50 -376 -178 -446 -380 -31 -89 -31 -253 1 -355
90 -294 344 -462 637 -421 161 22 271 77 368 182 207 223 194 614 -28 835 -76
76 -141 113 -241 139 -71 18 -207 18 -291 0z"/>
<path d="M13065 20440 c-53 -11 -115 -38 -214 -94 l-81 -46 -57 29 c-32 16
-96 41 -143 57 -75 24 -101 28 -215 28 -111 1 -140 -2 -197 -22 -360 -125
-487 -552 -264 -890 41 -62 65 -87 128 -129 179 -121 433 -147 601 -62 106 55
229 173 276 269 44 87 53 141 52 310 -1 237 10 233 74 -26 44 -177 80 -251
164 -335 52 -52 88 -77 171 -118 58 -28 109 -51 113 -51 5 0 6 8 3 18 -3 9
-21 148 -41 307 -38 315 -66 481 -95 562 -50 142 -156 217 -275 193z"/>
<path d="M16822 18545 c-68 -140 -145 -257 -203 -310 -22 -19 -39 -38 -39 -41
0 -3 21 -31 46 -62 53 -64 152 -262 187 -372 13 -40 28 -75 33 -77 6 -2 16 14
23 34 23 68 112 236 157 299 24 34 62 78 85 97 l42 34 -52 64 c-61 76 -127
205 -176 349 -20 57 -37 106 -39 107 -2 2 -31 -53 -64 -122z"/>
<path d="M4352 17960 c-63 -139 -130 -246 -200 -318 l-63 -65 29 -31 c71 -75
154 -235 207 -393 15 -46 30 -83 34 -83 4 0 21 35 39 78 52 127 123 242 196
320 l69 73 -30 32 c-72 77 -135 194 -189 353 -20 60 -40 113 -44 117 -4 4 -25
-33 -48 -83z"/>
<path d="M16562 14598 c-50 -101 -107 -228 -127 -283 -113 -304 -113 -408 -1
-1018 25 -137 46 -260 46 -273 0 -48 -32 -234 -40 -229 -4 2 -10 23 -14 46 -9
57 -68 206 -113 287 -60 108 -213 299 -213 266 0 -5 -7 -74 -16 -154 -12 -98
-17 -234 -17 -420 -1 -359 5 -391 156 -800 l35 -95 -51 -178 c-48 -169 -66
-202 -67 -121 0 62 -50 228 -100 331 -42 88 -132 233 -145 233 -14 0 -94 -405
-119 -600 -36 -286 -32 -374 30 -665 19 -88 34 -170 34 -182 0 -12 -35 -95
-77 -185 l-78 -162 -7 134 c-5 98 -13 161 -32 229 -26 93 -94 253 -113 264
-25 16 -188 -437 -264 -733 l-33 -125 0 -268 -1 -267 -88 -124 c-48 -68 -96
-131 -107 -141 -19 -17 -19 -16 -7 21 7 24 12 105 11 204 0 168 -13 260 -48
345 l-17 39 -59 -92 c-136 -211 -276 -464 -348 -628 -46 -105 -82 -242 -113
-434 -22 -134 -22 -135 -64 -175 -95 -93 -216 -197 -221 -192 -3 3 2 20 11 37
9 18 28 76 41 129 28 106 42 312 27 390 l-8 44 -142 -149 c-270 -285 -441
-499 -505 -633 -18 -36 -59 -131 -93 -211 l-61 -145 -144 -87 c-80 -48 -149
-88 -153 -88 -4 0 5 19 21 43 64 93 119 227 147 360 15 68 20 147 10 147 -3 0
-56 -33 -118 -74 -389 -258 -564 -407 -757 -646 -64 -80 -124 -151 -132 -157
-15 -13 -191 -55 -282 -69 l-49 -7 82 79 c92 87 188 222 220 309 12 32 20 59
18 62 -12 11 -524 -143 -703 -212 -177 -68 -271 -126 -450 -276 l-81 -67 -194
-27 c-319 -43 -599 -104 -814 -178 l-70 -24 -115 39 c-221 74 -477 130 -770
166 l-145 18 -105 85 c-220 178 -307 224 -618 328 -105 35 -412 125 -494 145
-38 9 -36 -3 11 -100 57 -118 144 -228 250 -317 25 -20 42 -37 39 -37 -9 0
-208 40 -272 55 -33 8 -65 20 -71 27 -7 7 -59 72 -116 143 -141 177 -165 203
-309 323 -156 131 -576 430 -587 418 -2 -2 3 -48 11 -102 21 -140 80 -302 144
-396 16 -24 32 -49 37 -57 8 -14 -25 4 -195 105 l-105 62 -44 109 c-75 188
-156 344 -226 437 -106 140 -255 309 -398 454 -107 108 -133 129 -139 115 -13
-33 -8 -250 7 -330 13 -69 42 -166 71 -238 10 -25 -66 37 -182 147 l-80 77
-23 133 c-45 270 -72 355 -175 563 -88 176 -235 433 -316 550 l-34 49 -12 -29
c-34 -81 -49 -181 -49 -340 0 -88 3 -182 8 -210 l7 -50 -25 30 c-14 17 -62 82
-106 145 l-81 115 5 170 c11 300 -12 446 -121 781 -57 174 -163 444 -174 444
-11 0 -74 -136 -101 -220 -31 -97 -46 -181 -55 -305 l-7 -99 -54 114 c-30 63
-65 139 -77 168 l-22 54 24 106 c51 230 66 335 66 462 0 190 -43 486 -110 770
l-28 115 -48 -65 c-92 -125 -163 -298 -195 -477 l-17 -97 -43 150 c-24 82 -47
165 -53 184 -9 32 -3 54 56 213 36 97 77 220 91 273 35 134 48 365 35 611 -9
185 -28 394 -36 402 -16 17 -157 -165 -219 -282 -50 -93 -68 -138 -99 -251
l-22 -79 -17 101 c-9 56 -17 120 -17 144 0 24 22 164 50 311 107 581 105 693
-15 1003 -45 115 -202 434 -214 434 -12 0 -69 -112 -124 -242 -85 -198 -137
-405 -137 -543 0 -175 68 -399 235 -780 85 -192 94 -220 109 -319 9 -60 15
-111 13 -112 -1 -2 -31 40 -66 92 -92 139 -280 329 -404 409 l-27 18 6 -59
c21 -196 93 -495 160 -664 102 -260 186 -378 431 -601 l81 -74 45 -165 c25
-91 49 -173 53 -184 4 -10 -46 36 -112 102 -65 65 -153 144 -194 174 -74 54
-231 150 -237 145 -4 -4 51 -211 76 -285 66 -194 175 -424 264 -557 95 -141
202 -240 404 -373 l102 -67 47 -105 c26 -58 62 -135 81 -172 18 -38 31 -68 27
-68 -3 0 -29 20 -57 43 -62 52 -177 130 -267 179 -69 38 -231 108 -251 108
-18 0 -4 -40 60 -176 139 -291 336 -564 505 -700 77 -61 283 -174 408 -223 52
-21 60 -29 114 -109 31 -48 76 -112 99 -142 62 -81 62 -84 3 -51 -29 16 -103
50 -165 75 -142 58 -414 129 -413 108 1 -15 170 -246 239 -327 96 -111 242
-250 349 -330 145 -109 289 -168 532 -219 l109 -24 135 -123 c74 -68 133 -125
132 -126 -1 -1 -24 5 -51 13 -28 8 -102 24 -165 35 -131 23 -420 38 -420 22 0
-11 137 -139 240 -225 161 -134 446 -299 600 -347 109 -35 237 -51 398 -51
l144 0 118 -72 c65 -40 136 -83 157 -95 l38 -22 -142 -1 c-78 0 -177 -5 -220
-10 -98 -13 -234 -40 -251 -49 -31 -17 274 -187 478 -267 367 -143 575 -158
897 -63 l103 30 157 -35 c87 -19 167 -36 178 -38 13 -3 -2 -11 -39 -22 -131
-39 -427 -171 -491 -219 -19 -14 -17 -16 35 -31 195 -57 381 -81 615 -80 306
2 412 26 677 159 l147 74 135 -19 c254 -36 526 -92 574 -119 11 -6 -11 -23
-79 -61 -271 -153 -478 -304 -737 -539 -60 -54 -82 -81 -80 -96 2 -14 28 -32
88 -62 121 -61 243 -94 372 -100 l107 -6 16 29 c62 114 116 203 155 257 99
137 337 346 467 410 l41 20 70 -41 c121 -72 234 -161 347 -276 152 -152 242
-274 374 -503 25 -43 48 -73 58 -73 42 0 182 201 240 343 36 91 44 174 18 200
-46 47 -471 317 -659 421 -115 63 -119 66 -92 76 88 33 374 92 611 125 l120
16 147 -75 c253 -129 391 -161 698 -160 199 0 335 16 518 59 141 34 144 36 91
67 -121 70 -264 134 -422 188 l-108 37 63 12 c35 7 113 24 174 38 l111 26 129
-36 c173 -49 256 -60 394 -54 126 6 237 31 412 92 196 69 589 278 556 296 -17
9 -154 36 -251 49 -43 5 -144 10 -224 10 l-147 0 157 94 156 93 193 6 c259 8
341 27 551 132 199 100 422 262 577 419 l74 76 -106 0 c-154 0 -397 -35 -533
-77 -11 -3 5 16 35 43 30 27 91 83 135 126 l80 77 123 26 c292 62 432 130 648
315 145 124 362 379 450 527 l25 43 -33 -6 c-172 -30 -398 -105 -535 -178 -35
-19 -63 -31 -63 -29 0 3 28 44 63 92 35 47 82 113 104 147 37 53 49 63 110 89
118 49 245 115 328 170 135 89 300 275 429 485 94 150 225 424 211 438 -9 10
-190 -67 -286 -122 -52 -30 -132 -83 -178 -118 -46 -34 -93 -69 -103 -77 -14
-11 -10 4 18 65 20 43 54 120 76 171 l40 91 86 58 c296 196 413 329 561 636
85 174 129 294 175 466 l34 132 -41 -22 c-134 -67 -279 -180 -416 -324 -65
-67 -92 -90 -88 -74 4 14 27 96 51 183 l44 158 145 140 c212 204 270 287 362
522 76 194 143 465 163 659 8 75 8 76 -12 66 -26 -13 -135 -102 -198 -160 -74
-69 -156 -166 -219 -262 -33 -49 -59 -85 -59 -79 0 5 7 58 15 118 14 96 23
124 86 264 192 421 270 691 254 876 -9 111 -29 200 -76 340 -35 106 -170 405
-182 405 -3 0 -46 -82 -95 -182z"/>
<path d="M6375 14751 c-94 -9 -172 -37 -254 -92 -68 -45 -106 -91 -134 -163
-19 -46 -21 -80 -26 -336 -3 -157 -3 -317 0 -355 15 -189 160 -330 387 -377
96 -20 124 -20 3657 -18 1958 1 3561 3 3563 5 3 2 7 24 9 48 l5 43 -298 -4
c-165 -2 -738 1 -1274 6 -1148 12 -1040 0 -1176 136 -118 119 -152 204 -161
406 -15 317 105 522 350 598 47 15 183 17 1300 19 l1247 4 0 33 0 33 -2282 6
c-1256 4 -2857 9 -3558 11 -701 3 -1311 1 -1355 -3z"/>
<path d="M6202 11781 c-9 -25 -8 -34 4 -46 9 -8 23 -15 32 -15 9 0 584 -2
1277 -3 1395 -2 1298 2 1440 -67 107 -52 176 -135 222 -267 22 -66 27 -101 31
-218 4 -122 1 -153 -17 -225 -30 -118 -62 -179 -126 -239 -90 -85 -218 -132
-405 -149 -53 -5 -585 -7 -1205 -3 -610 3 -1143 5 -1182 3 l-73 -4 0 -49 0
-50 3708 1 c4079 1 3783 -3 3920 62 84 40 193 142 229 216 l28 57 3 305 c4
321 -2 390 -40 464 -45 89 -184 189 -318 231 -51 16 -294 18 -3786 22 l-3731
5 -11 -31z"/>
<path d="M1345 3589 c-210 -20 -448 -74 -960 -219 -176 -49 -333 -93 -348 -97
l-28 -8 56 -82 c93 -135 230 -288 527 -586 292 -293 407 -422 509 -569 82
-119 90 -147 96 -309 10 -271 -38 -555 -223 -1312 -53 -214 -93 -391 -90 -394
3 -4 662 145 1463 329 1237 285 1458 338 1457 352 -1 9 -31 203 -65 431 -53
345 -67 414 -79 410 -32 -9 -1483 -305 -1485 -303 -1 2 -104 422 -229 933
-125 512 -230 939 -232 950 -3 11 -16 89 -29 173 -27 171 -37 195 -117 267
-56 50 -53 50 -223 34z"/>
<path d="M18488 3589 c-45 -25 -125 -201 -187 -410 -54 -186 -88 -337 -207
-931 -126 -630 -174 -829 -239 -982 -12 -29 -20 -37 -35 -33 -62 16 -1481 299
-1484 296 -5 -5 -137 -861 -134 -864 7 -5 2922 -654 2925 -651 2 2 -30 139
-72 304 -134 537 -200 850 -230 1097 -18 147 -21 369 -5 442 27 125 194 337
529 673 318 319 450 461 542 582 103 138 116 158 96 158 -8 0 -158 41 -333 91
-561 160 -796 212 -1003 224 -53 3 -107 8 -121 10 -14 2 -33 -1 -42 -6z"/>
</g>
</svg>
